<svg xmlns="http://www.w3.org/2000/svg" viewBox="0 0 625 246">
  <style>
      text {
          font-family: Arial;
          font-size: 13px;
          fill: #787878;
      }

      .desc {
          font-size: 9px;
      }

      .vline {
          fill: #acacac;
          stroke: none;
          stroke-width: 0;
      }

      .subline {
          fill: #bbb;
          stroke: none;
          stroke-width: 0;
      }

      .bar {
          stroke-linejoin: round;
          height: 12px;
      }
  </style>
  <rect x="175" y="0" width="1" height="196" class="vline"/>
  <rect x="275" y="0" width="1" height="196" class="vline"/>
  <rect x="375" y="0" width="1" height="196" class="vline"/>
  <rect x="475" y="0" width="1" height="196" class="vline"/>
  <rect x="575" y="0" width="1" height="196" class="vline"/>
  <rect x="225" y="0" width="1" height="196" class="subline"/>
  <rect x="325" y="0" width="1" height="196" class="subline"/>
  <rect x="425" y="0" width="1" height="196" class="subline"/>
  <rect x="525" y="0" width="1" height="196" class="subline"/>
  <rect x="175" y="196" width="450" height="1" class="subline"/>

  <rect x="205" y="204" width="30" fill="#4886CD" class="bar"/>
  <text x="245" y="216">ns / call</text>
  <rect x="400" y="204" width="30" fill="#4FB84B" class="bar"/>
  <text x="440" y="216">GC</text>
  <text x="160" y="37" text-anchor="end">Num#calculate</text>
  <text x="160" y="47" text-anchor="end" class="desc"></text>
  <rect x="175" y="20" width="25.36" rx="2" ry="2" fill="#4886CD" class="bar"/>
  <text x="207.36" y="30" class="desc">10</text>
  <rect x="175" y="32" width="0.00" rx="2" ry="2" fill="#4FB84B" class="bar"/>
  <text x="182.00" y="42" class="desc">0</text>
  <text x="160" y="81" text-anchor="end">Decimal4J</text>
  <text x="160" y="91" text-anchor="end" class="desc">1.0.3</text>
  <rect x="175" y="64" width="43.12" rx="2" ry="2" fill="#4886CD" class="bar"/>
  <text x="225.12" y="74" class="desc">17</text>
  <rect x="175" y="76" width="0.00" rx="2" ry="2" fill="#4FB84B" class="bar"/>
  <text x="182.00" y="86" class="desc">0</text>
  <text x="160" y="125" text-anchor="end">Num</text>
  <text x="160" y="135" text-anchor="end" class="desc"></text>
  <rect x="175" y="108" width="50.72" rx="2" ry="2" fill="#4886CD" class="bar"/>
  <text x="232.72" y="118" class="desc">20</text>
  <rect x="175" y="120" width="40.58" rx="2" ry="2" fill="#4FB84B" class="bar"/>
  <text x="222.58" y="130" class="desc">4</text>
  <text x="160" y="169" text-anchor="end">Java BigDecimal</text>
  <text x="160" y="179" text-anchor="end" class="desc"></text>
  <rect x="175" y="152" width="350.00" rx="2" ry="2" fill="#4886CD" class="bar"/>
  <text x="532.00" y="162" class="desc">138</text>
  <rect x="175" y="164" width="142.03" rx="2" ry="2" fill="#4FB84B" class="bar"/>
  <text x="324.03" y="174" class="desc">14</text>
  <text x="175" y="236" class="desc">Java: 23</text>
  <text x="245" y="236" class="desc">Memory: 8128MB</text>
  <text x="345" y="236" class="desc">CPU: 12th Gen Intel(R) Core(TM) i5-12400 2.5GHz</text>
</svg>
